<svg xmlns="http://www.w3.org/2000/svg" width="97" height="26" viewBox="168.5 45.699 97 26"><linearGradient id="a" gradientUnits="userSpaceOnUse" x1="472.877" y1="-293.781" x2="472.877" y2="-299.697" gradientTransform="matrix(1 0 0 -1 -256 -228)"><stop offset="0" stop-color="#009EDD"/><stop offset="1" stop-color="#006FBB"/></linearGradient><path fill="url(#a)" d="M203.42 66.29c0-.178.157-.356.38-.356s.377.156.377.334-.044.223-.022.468c.156 1.604.913 3.45 2.65 4.097.133.044.222.11.2.2-.022.065-.11.088-.268.132-.245.09-.267.268-.445.268-.11 0-.223-.066-.423-.178-.602-.378-1.582-1.425-1.96-3.605-.356 2.47-1.848 3.472-2.538 3.783-.112.045-.18.067-.245.067-.09 0-.156-.067-.178-.155 0-.067.02-.112.133-.2 1.336-.916 2.338-2.094 2.338-4.855zm39.624 4.854c-.11.088-.133.133-.133.2 0 .088.067.155.18.155.044 0 .133-.023.243-.068.713-.312 2.183-1.312 2.54-3.783.377 2.18 1.355 3.227 1.957 3.604.2.134.312.178.423.178.178 0 .2-.178.445-.268.156-.066.245-.066.268-.133.022-.088-.044-.154-.2-.198-1.737-.646-2.494-2.517-2.65-4.097-.02-.245.023-.29.023-.468s-.157-.334-.38-.334c-.222 0-.378.18-.378.356 0 2.76-1.002 3.94-2.338 4.854zm-63.24-.068c0-.156-.09-.29-.268-.312-.87-.18-1.803-.49-1.803-1.402 0-.913.556-1.76 1.09-2.093.38-.224.802-.246 1.225-.224.2.022.312-.066.312-.267 0-.157-.178-.38-.645-.38-.334 0-1.292.133-2.182.29-.846.133-1.736.29-1.87.29-.18 0-.246-.112-.378-.112-.134 0-.2.067-.2.178 0 .178.355.534.667.534.29 0 1.135-.356 2.626-.557-.734.624-1.246 1.29-1.246 2.382 0 1.246 1.29 1.938 2.314 1.938.223.022.357-.112.357-.267zm.533-2.427c0-.312-.69-.713-.89-.713-.09 0-.157.066-.157.155 0 .045.022.09.067.134.156.133.312.268.4.423.045.088.067.288.312.288.156-.02.267-.11.267-.29zm.802-.423c0-.356-.735-.734-.958-.734-.09 0-.156.067-.156.156 0 .043.022.087.067.11.178.133.312.268.4.4.11.133.11.334.334.334.2 0 .312-.11.312-.267zm3.76-.89c-.066 0-.133 0-.222.02.134-.355.245-.645.245-.756 0-.267-.423-.534-.6-.534-.134 0-.2.09-.2.2.02.135.2.157.2.313 0 .133-.09.467-.268.912-.445.09-.935.2-1.135.2-.312 0-.378-.044-.49-.044-.11 0-.178.088-.178.178 0 .044.044.11.09.155.177.135.444.246.623.246.2 0 .512-.11.868-.223-.333.823-.78 1.825-1.18 2.493-.11.2-.178.245-.178.38 0 .154.133.287.29.287.222 0 .29-.177.4-.378.51-.98.98-2.003 1.335-2.96.11-.022.2-.045.29-.045.29 0 .6.09.6.802 0 1.046-.488 1.914-.8 1.914-.134 0-.468-.29-.646-.29-.09 0-.155.09-.155.18.02.134.22.222.42.422.112.11.068.38.357.38.846 0 1.335-1.18 1.335-2.628.023-1-.534-1.224-1-1.224zm1.737-.268c-.133 0-.178.11-.178.177s.043.134.11.178c.334.224 1.113 1.002 1.113 1.514-.11 0-.445-.134-.534-.134-.112 0-.18.065-.18.2 0 .112.09.156.18.178.578.156.623.312.867.312.134 0 .334-.09.334-.513-.02-.89-1.335-1.892-1.713-1.914zm13.423 2.715c0 1.047-1.068 1.736-2.382 1.67-.734-.045-1.07-.446-1.07-.89 0-.29.27-.78.98-.69.535.066.914.422.98.978.467-.177.868-.512.868-1.067 0-.78-.69-1.068-1.113-1.068-1.09 0-1.848.868-1.937 1-.09.112-.2.18-.312.18-.156 0-.267-.135-.267-.268 0-.18.134-.29.29-.445.557-.557 2.182-2.137 2.36-2.314-.446 0-1.114.29-1.448.29s-.668-.245-.69-.4c0-.134.09-.2.178-.2.11 0 .156.066.534.066.267 0 1.247-.246 1.714-.246.312 0 .512.112.512.335 0 .268-.2.334-.468.557-.312.267-.868.778-1.29 1.225.266-.09.666-.18.845-.18 1.047-.07 1.715.645 1.715 1.468zm-2.025 1.157c-.045-.312-.223-.557-.512-.602-.267-.044-.445.045-.445.2 0 .2.223.357.512.4.133.025.288.025.445.002zm-7.458-2.09c-.11.043-.2.22-.378.578-.18-1.247.444-2.05.444-2.517 0-.178-.09-.445-.29-.667-.133-.156-.356-.09-.356.088 0 .134.044.224.044.4 0 .38-.333.914-.378 1.893-.022.424.045 1.447.268 1.96.09.178.178.333.378.333.267 0 .378-.312.267-.49-.067-.09-.156-.2-.156-.333 0-.468.335-.958.335-1.09.022-.112-.11-.18-.178-.156zm4.096-1.383c0-.156-.11-.29-.267-.29-.156 0-.245.156-.49.2-.067.023-.156.045-.222.045-.022-.334-.045-.623-.067-.8-.067-.446-.423-.56-.534-.56-.112 0-.2.068-.2.18 0 .112.088.156.133.445.022.246.067.513.067.824-.757.09-1.558.066-1.714.066-.134 0-.2.067-.2.18 0 .087.066.154.155.2.223.11 1.024.11 1.49.087h.29c0 .245.023.468.023.67 0 1.356-.333 2.047-1.202 2.38-.11.046-.156.09-.156.18s.067.2.178.2c.067 0 .2-.046.268-.046 1.068-.354 1.513-1.09 1.513-2.67 0-.222 0-.468-.023-.733.577-.09.956-.246.956-.558zm17.897.69c0-.29-.423-.58-.6-.557-.112 0-.18.09-.18.178 0 .112.157.18.157.29 0 .156-.958.445-1.603.713-.156-.58-.6-.868-1.113-.623.113-.2.246-.49.335-.757.69-.022 1.18-.156 1.18-.49 0-.155-.09-.268-.245-.268s-.223.112-.445.156c-.09.023-.2.045-.312.068.09-.312.156-.557.156-.646 0-.267-.424-.422-.58-.422-.11 0-.178.09-.178.178 0 .155.2.2.2.334 0 .09-.066.333-.133.578-.58.022-1.114-.045-1.248-.066-.134 0-.2.09-.2.178 0 .067.044.135.133.18.2.088.735.177 1.135.2-.29.733-.645 1.023-1.18 1.424-.11.09-.2.178-.2.333 0 .178.134.29.29.29.134 0 .2-.046.29-.135.667-.6.912-.868 1.2-.868s.38.245.4.557c-.4.2-1.49.734-1.49 1.49 0 .624.423 1.07 1.87 1.07.58 0 1.09-.022 1.402-.134.178-.066.245-.18.245-.312 0-.11-.11-.29-.312-.29-.245 0-.512.2-1.29.2-.98 0-1.426-.222-1.426-.577s.51-.688 1.023-.934v.49c.022.2.133.288.29.288.177 0 .266-.11.266-.333v-.69c.11-.044.2-.066.266-.088 1.004-.335 1.894-.513 1.894-1.002zm.757 2.448c.29.268.356.4.4.602.045.155.134.333.357.355s.378-.155.378-.312c.022-.29-.178-.602-.534-.868-.245-.178-.624-.333-.8-.4s-.27.044-.27.155c.024.134.18.2.47.468zm4.697-.958c-.09 0-.156.067-.224.18-.066.133-.155.31-.178.378-.022-.134-.044-.467-.044-.778 0-.69.445-1.85.445-2.405 0-.312-.245-.734-.468-.757-.112-.02-.178.066-.2.156 0 .09.066.245.066.533 0 .646-.355 1.78-.355 2.517-.022 1.047.222 1.624.267 1.758.067.134.156.2.29.2.223 0 .29-.155.29-.288 0-.135-.067-.2-.067-.312 0-.468.312-.824.312-1.047.023-.067-.02-.11-.133-.135zm4.385 1.226c0 .178-.135.288-.335.288-.11-.02-.223-.088-.334-.177-.177-.135-.4-.335-.69-.49 0 .69-.555.913-1.044.913-.69 0-1.18-.356-1.18-.824 0-.445.534-.734 1.18-.734.178 0 .355.022.51.045-.02-.312-.043-.668-.043-.98-.18.022-.356.022-.534 0-.49-.02-1.024-.2-1.024-.577 0-.135.066-.224.178-.246.066 0 .155.022.155.134 0 .045.065.112.11.133.223.068.647.113 1.09.068 0-.667.046-.867 0-1.18-.49.022-1-.022-1.246-.134-.066-.022-.11-.066-.11-.177 0-.067.044-.156.178-.156.156 0 .578.022 1.068-.02.89-.09 1.002-.225 1.157-.225.178 0 .312.156.312.312 0 .2-.2.268-.335.312-.155.044-.355.065-.556.088.088.09.132.178.132.245 0 .133-.066.49-.066.89.29-.043.557-.134.802-.244.09-.046.178-.11.29-.11.133 0 .267.11.288.265 0 .134-.066.246-.223.312s-.623.2-1.157.266c.022.402.044.803.066 1.137.69.2 1.158.533 1.202.557.09.085.155.175.155.31zm-1.893-.58c-.155-.043-.333-.066-.51-.066-.446 0-.647.11-.647.356 0 .18.244.29.578.29.29 0 .557-.134.557-.512.022 0 .022-.023.022-.067zm4.43-.646c-.09 0-.157.067-.224.18-.065.133-.155.31-.178.378-.02-.134-.044-.467-.044-.778 0-.69.446-1.85.446-2.405 0-.312-.245-.734-.468-.757-.11-.02-.18.066-.2.156 0 .09.066.245.066.533 0 .646-.356 1.78-.356 2.517-.022 1.047.223 1.624.268 1.758.067.134.155.2.29.2.222 0 .29-.155.29-.288 0-.135-.068-.2-.068-.312 0-.468.312-.824.312-1.047.024-.067-.022-.11-.133-.135zm4.363 1.226c0 .178-.133.288-.334.288-.11-.02-.223-.088-.334-.177-.178-.135-.4-.335-.69-.49 0 .69-.556.913-1.046.913-.69 0-1.18-.356-1.18-.824 0-.445.534-.734 1.18-.734.178 0 .357.022.512.045-.02-.312-.044-.668-.044-.98-.178.022-.356.022-.534 0-.49-.02-1.024-.2-1.024-.577 0-.135.067-.224.18-.246.065 0 .154.022.154.134 0 .045.044.112.11.133.225.068.647.113 1.092.068 0-.667.045-.867 0-1.18-.49.022-1-.022-1.246-.134-.066-.022-.11-.066-.11-.177 0-.067.044-.156.177-.156.155 0 .58.022 1.068-.02.892-.09 1.003-.225 1.16-.225.177 0 .31.156.31.312 0 .2-.2.268-.333.312-.156.044-.356.065-.557.088.09.09.134.178.134.245 0 .133-.066.49-.066.89.288-.043.556-.134.8-.244.09-.046.18-.11.29-.11.134 0 .268.11.29.265 0 .134-.067.246-.223.312s-.624.2-1.158.266c.023.402.045.803.067 1.137.69.2 1.157.533 1.202.557.11.085.154.175.154.31zm-1.87-.58c-.156-.043-.334-.066-.513-.066-.444 0-.623.11-.623.356 0 .18.245.29.58.29.288 0 .556-.134.556-.512v-.067zm13.534-1.023c.134.623.535.823.535 1.135 0 .49-.78 1.068-2.184 1.068-1.558 0-1.758-.512-1.758-.936 0-.155.09-.355.155-.488-.778-.38-.89-.513-.89-.98 0-.445.423-1.112 1.313-.957v-.445c-.134 0-.29.022-.445.022-.378 0-.89-.178-.912-.423 0-.112.066-.2.178-.2.134 0 .18.11.69.11.18 0 .334 0 .49-.022.02-.222.02-.4.044-.646 0-.245-.178-.18-.2-.38 0-.11.11-.177.2-.177.312-.022.557.223.535.468-.023.245-.046.445-.046.646.29-.068.467-.134.557-.157.11-.044.2-.11.312-.11.133 0 .267.11.267.267 0 .134-.09.223-.224.29-.11.044-.422.177-.935.244-.022.668.02.823.02 1.002 0 .957-.555 1.624-.555 1.848 0 .423.623.49 1.113.49 1.135 0 1.558-.357 1.558-.624 0-.378-.178-.87-.155-1.046.02-.11.088-.155.154-.155.09.02.158.042.18.153zm-2.85-.422c.045-.223-.044-.334-.177-.334-.356 0-.713.268-.713.535 0 .245.268.334.58.424.177.066.222-.18.31-.623zm4.14-.445c-.11-.357-.555-.957-1.355-.957-.313 0-.536.222-.536.378 0 .09.045.178.155.178s.178-.178.31-.178c.2 0 .535.222.713.49-.09 0-.178.066-.178.133 0 .09.09.155.267.2.134.044.223.11.335.11.2.046.355-.133.288-.355zm9.284-.713c.18-.156.38-.067.534.067.49.4 1.67 2.18 2.982 2.76.4.177.602-.09.624-.312.02-.155-.09-.267-.223-.356-1.492-.824-2.604-2.27-3.206-2.648-.313-.18-.647-.18-1.047.222-.378.4-1.047 1.426-1.56 1.626-.154.067-.377.088-.377.267 0 .155.334.267.602.267.713.042 1.336-1.583 1.67-1.895zm7.123 2.94c0 .578-.466 1.067-1.066 1.067-.58 0-1.047-.47-1.047-1.07 0-.577.468-1.067 1.047-1.067.6.022 1.067.49 1.067 1.068zm-.49 0c0-.313-.243-.558-.555-.558s-.557.245-.557.557.245.558.557.558c.29.022.556-.246.556-.557zM233.14 66.69c-.178.09-.467.18-.49.334 0 .09.068.18.157.18.178 0 .356-.202.757-.29.11-.023.155.022.29.022s.29-.112.29-.312c0-.246-.27-.356-.56-.4-.822-.09-1.245-.245-1.355-.245-.134 0-.2.087-.2.2.043.265.98.49 1.11.51zm.535 1.29c-.69.56-2.337 2.183-2.805 2.762-.11.134-.178.223-.178.378 0 .156.155.312.312.312.244 0 .355-.222.422-.355.09-.178.558-.89 1.047-1.18.2-.135.513-.135.58 0 .11.223-.067.734.155 1.18.18.334.602.512 1.38.467.557-.02.913-.223.958-.267.11-.09.134-.2.09-.356-.068-.177-.246-.243-.4-.177-.2.066-.603.29-1.248.178-.268-.043-.334-.243-.334-.8 0-.534-.378-.89-.934-.67.4-.422 1.068-.91 1.27-1.066s.533-.29.533-.513c0-.22-.29-.4-.558-.377-.778.044-2.114.423-2.337.423-.155 0-.178-.11-.334-.11-.088 0-.178.065-.178.177 0 .267.312.534.49.558.4.043 1.158-.425 2.07-.56z"/><linearGradient id="b" gradientUnits="userSpaceOnUse" x1="444.039" y1="-277.428" x2="456.684" y2="-277.428" gradientTransform="matrix(1 0 0 -1 -256 -228)"><stop offset="0" stop-color="#006FBB"/><stop offset=".9" stop-color="#00AEEB"/></linearGradient><path fill="url(#b)" d="M188.173 53.156c.824-3.36 10.33-4.03 10.33-4.03l2.18-3.427S188.04 47.5 188.04 52.51v.647h.133z"/><linearGradient id="c" gradientUnits="userSpaceOnUse" x1="473" y1="-292.643" x2="473" y2="-277.423" gradientTransform="matrix(1 0 0 -1 -256 -228)"><stop offset=".18" stop-color="#006FBB"/><stop offset=".683" stop-color="#009CDD"/><stop offset=".95" stop-color="#00AEEB"/></linearGradient><path fill="url(#c)" d="M254.02 52.645v9.17c-1.314 0-2.293.225-4.52.225-3.005 0-4.252-1.09-4.252-3.006v-5.832c0-.312.245-.58.578-.58h1.938v5.32c0 1.692.355 2.495 1.825 2.495.822 0 1.892-.157 1.892-.157v-7.256c0-.2.178-.378.38-.378h2.157zm-25 9.17h2.494V54.38c.535-.11 1.157-.223 1.536-.29.355-.09.557-.2.557-.845v-.802c-1.938 0-3.695.4-4.608.735v8.637h.02zm-3.74-6.455c-.356 0-.622.29-.622.623v3.895c-.334.135-.98.38-1.85.38-1.847 0-2.692-1.27-2.692-4.83 0-2.895.912-4.23 3.54-4.23 1.2 0 2.47.51 2.98.778v-1.892c-.31-.133-1.734-.69-3.693-.69-3.184 0-5.5 1.692-5.5 6.033 0 4.63 1.47 6.588 5.544 6.588 1.848 0 3.583-.534 4.23-.78V55.36h-1.936zm13.69-2.938c-3.07 0-4.83 1.335-4.83 4.563 0 3.405 1.07 5.03 4.83 5.03 3.162 0 4.83-1.2 4.83-5.03 0-3.25-1.668-4.563-4.83-4.563zm0 8.058c-1.558 0-2.247-.868-2.247-3.473 0-2.092.623-2.982 2.248-2.982 1.56 0 2.228.868 2.228 2.982 0 2.54-.69 3.473-2.227 3.473zm21.504-8.058c-2.448 0-2.738.223-4.496.223v12h1.87c.356 0 .623-.292.623-.624v-2.337c.558.133 1.36.356 2.762.356 2.247 0 4.028-1.293 4.028-5.033.022-3.027-1.47-4.585-4.786-4.585zm0 8.058c-1.18 0-2.003-.18-2.003-.18v-6.098s.98-.2 2.004-.2c1.358 0 2.182.8 2.182 2.982.022 2.472-.668 3.496-2.182 3.496zm-72.813-3.495c0-2.872-1.646-4.563-4.43-4.563-2.78 0-4.473 1.625-4.473 4.563 0 3.272 1.046 5.03 4.608 5.03 1.96 0 3.495-.49 3.85-.69v-1.603c-.332.245-1.668.802-2.982.802-2.115 0-2.938-.958-2.983-2.85h6.41v-.69zm-6.41-.646c.044-1.648.734-2.494 1.98-2.494 1.293 0 1.96 1.002 2.004 2.493h-3.984zm-9.327-2.872c-.312-.245-.445-.556-.445-.935 0-.98.958-1.358 2.182-1.358 1.47 0 3.07.557 3.562.78v-1.85c-.29-.11-2.115-.69-4.163-.69-2.294 0-4.297 1.047-4.297 3.207 0 2.715 2.627 3.45 4.63 4.363.89.423 1.625.868 1.625 1.67 0 1.045-.868 1.624-2.582 1.624-1.335-.022-2.783-.558-3.695-.98v2.025c.49.245 2.338.713 4.253.713 2.626 0 4.74-.958 4.74-3.696.022-3.027-4.163-3.538-5.81-4.874zm38.555-.445v7.256s-1.068.156-1.893.156c-1.47 0-1.825-.803-1.825-2.494v-5.298h-1.96c-.31 0-.578.245-.578.58v5.81c0 1.914 1.247 3.005 4.252 3.005 2.226 0 3.205-.225 4.52-.225v-9.17h-2.16c-.178 0-.356.155-.356.378zm-21.326.467v8.325h2.515v-9.95c-1.402.446-2.515 1.047-2.515 1.625zm9.728-1.068c-1.068 0-2.182.29-2.805.534v-1.87c-.712 0-1.625.11-2.515.29v10.44c2.003 0 2.493.223 4.452.223 3.25 0 4.83-1.427 4.83-5.033.045-3.005-1.557-4.585-3.962-4.585zm-.8 8.058c-.913 0-1.982-.18-1.982-.18v-5.875c.222-.067 1.07-.423 2.003-.423 1.38 0 2.183.78 2.183 2.983 0 2.494-.646 3.495-2.204 3.495z"/></svg>